<?xml version="1.0" encoding="UTF-8" standalone="no"?>
<!-- Page 1 -->

<svg
   xmlns:dc="http://purl.org/dc/elements/1.1/"
   xmlns:cc="http://creativecommons.org/ns#"
   xmlns:rdf="http://www.w3.org/1999/02/22-rdf-syntax-ns#"
   xmlns:svg="http://www.w3.org/2000/svg"
   xmlns="http://www.w3.org/2000/svg"
   xmlns:sodipodi="http://sodipodi.sourceforge.net/DTD/sodipodi-0.dtd"
   xmlns:inkscape="http://www.inkscape.org/namespaces/inkscape"
   x="0"
   y="0"
   width="1283.2765"
   height="1278.7352"
   viewBox="0 0 1283.2765 1278.7352"
   version="1.1"
   style="display:block"
   id="svg164"
   sodipodi:docname="1-pruhledne.svg"
   inkscape:version="0.92.2 (5c3e80d, 2017-08-06)"
   inkscape:export-filename="/home/karpi/Projekty/CRSMOPraha9/2018/img/logo/LOGO/1-male.svg.png"
   inkscape:export-xdpi="7.4699998"
   inkscape:export-ydpi="7.4699998">
  <metadata
     id="metadata168">
    <rdf:RDF>
      <cc:Work
         rdf:about="">
        <dc:format>image/svg+xml</dc:format>
        <dc:type
           rdf:resource="http://purl.org/dc/dcmitype/StillImage" />
        <dc:title></dc:title>
      </cc:Work>
    </rdf:RDF>
  </metadata>
  <sodipodi:namedview
     pagecolor="#ffffff"
     bordercolor="#666666"
     borderopacity="1"
     objecttolerance="10"
     gridtolerance="10"
     guidetolerance="10"
     inkscape:pageopacity="0"
     inkscape:pageshadow="2"
     inkscape:window-width="1920"
     inkscape:window-height="988"
     id="namedview166"
     showgrid="false"
     fit-margin-top="-0.6"
     fit-margin-left="0"
     fit-margin-right="0"
     fit-margin-bottom="-0.2"
     inkscape:zoom="0.36716656"
     inkscape:cx="1233.368"
     inkscape:cy="716.28579"
     inkscape:window-x="1920"
     inkscape:window-y="27"
     inkscape:window-maximized="1"
     inkscape:current-layer="svg164" />
  <defs
     id="defs4">
    <style
       type="text/css"
       id="style2"><![CDATA[

.g1_1{
fill: #008942;
}
.g2_1{
fill: #FFFFFF;
}
.g3_1{
fill: #231F20;
}


]]></style>
  </defs>
  <path
     d="M 0,0 V 1278.7352 H 1283.2764 V 0 Z"
     id="path6"
     inkscape:connector-curvature="0"
     style="fill:none;stroke:none;stroke-width:0.83778578" />
  <path
     style="opacity:1;fill:none;fill-opacity:1;stroke:none;stroke-width:19.05056;stroke-linecap:round;stroke-linejoin:round;stroke-miterlimit:4;stroke-dasharray:none;stroke-opacity:1"
     id="path9609"
     sodipodi:type="arc"
     sodipodi:cx="641.43085"
     sodipodi:cy="641.93579"
     sodipodi:rx="642.36359"
     sodipodi:ry="642.76007"
     sodipodi:start="0"
     sodipodi:end="6.2748012"
     sodipodi:open="true"
     d="M 1283.7944,641.93579 A 642.36359,642.76007 0 0 1 642.77726,1284.6944 642.36359,642.76007 0 0 1 -0.92709504,644.63027 642.36359,642.76007 0 0 1 637.39164,-0.81157247 642.36359,642.76007 0 0 1 1283.7719,636.54688" />
  <path
     d="m 115.07644,616.93303 c -32,39.1 -37.7,64.4 -67.8,126.2 -5.6,-33.1 -8.5,-67 -8.5,-101.6 0,-333.8 270.6,-604.4 604.4,-604.4 121.8,0 235.1,36.1 330,98.1 3.9,2.5 22.6,15.7 26.4,18.3 -62.5,4.2 -114.2,20 -141.7,28.4 -48.1,16 -145.4,34.7 -190.8,55 -9.1,-0.6 -15.6,1.7 -24.9,1.7 -105.1,0 -199.2,38.7 -270.6,104.3 -2.3,2.1 -4.6,4.3 -6.9,6.4 -30.5,10.5 -177,33.2 -239,79.9 1,52.7 -18.3,126.1 -47.2,172.1 -7.2,8.2 0,19 36.6,15.6 z"
     class="g1_1"
     id="path8"
     inkscape:connector-curvature="0"
     style="fill:#008942;fill-rule:evenodd" />
  <path
     d="m 1005.3764,465.13303 c 26.6,53.7 39.7,112.4 39.7,176.4 0,152.8 -79.29996,281.9 -204.59996,350.2 6.8,18.19997 86.9,-20.4 91.4,17.19997 -68.2,143.6 -265.1,164.9 -382.4,159.1 -46.3,-2.3 -105.6,-1.5 -242.1,-23.9 96.1,64.3 211.5,101.8 335.8,101.8 333.7,0 604.29996,-270.59997 604.29996,-604.39997 0,-122.4 -33.7,-231 -96.3,-326.2 -46.7,86.1 -132.3,127.5 -145.8,149.8 z"
     class="g1_1"
     id="path10"
     inkscape:connector-curvature="0"
     style="fill:#008942;fill-rule:evenodd" />
  <path
     d="m 968.87644,291.53303 c 8.9,-6.8 26.4,-23.4 10.1,-20.3 -10.8,21.1 -38,13.8 -38.7,-12.5 9.4,-15.5 26.8,-8 30.1,-19.4 -16.4,-2.7 -38,14.5 -41.1,26.3 -3.8,31.1 16.5,34 39.6,25.9 z"
     class="g2_1"
     id="path12"
     inkscape:connector-curvature="0"
     style="fill:#ffffff;fill-rule:evenodd" />
  <path
     d="m 286.47644,429.83303 c -0.9,0.1 5.1,-0.1 13.5,-1.2 16.4,-2.2 41.9,-8.2 42.1,-23.5 -8.3,1.7 -22.2,6 -34.9,10.5 -21.7,7.8 -39.9,16.3 -20.7,14.2 z"
     class="g3_1"
     id="path14"
     inkscape:connector-curvature="0"
     style="fill:#231f20;fill-rule:evenodd" />
  <path
     d="m 202.07644,500.73303 c -3.5,0.7 50.1,-4.8 62.9,-23.7 -36.7,3.8 -92.1,29.8 -62.9,23.7 z"
     class="g3_1"
     id="path16"
     inkscape:connector-curvature="0"
     style="fill:#231f20;fill-rule:evenodd" />
  <path
     d="m 181.27644,524.03303 c 3.8,16.9 39.3,3.3 41.5,-13 -13.6,3.8 -29.1,12.8 -41.5,13 z"
     class="g3_1"
     id="path18"
     inkscape:connector-curvature="0"
     style="fill:#231f20;fill-rule:evenodd" />
  <path
     d="m 647.27644,305.03303 c -16.7,-0.6 -26.4,9.1 -24.8,16.9 4.9,20.9 43.2,-1.2 24.8,-16.9 z"
     class="g3_1"
     id="path20"
     inkscape:connector-curvature="0"
     style="fill:#231f20;fill-rule:evenodd" />
  <path
     d="m 242.27644,462.13303 c 9.5,0 27.1,0.4 41.8,-4.6 8.9,-3 16.7,-7.9 21.1,-15.9 -2.9,-0.5 -7.7,0.2 -13.7,1.7 -45.7,11.2 -161.5,68.9 -49.2,18.8 z"
     class="g3_1"
     id="path22"
     inkscape:connector-curvature="0"
     style="fill:#231f20;fill-rule:evenodd" />
  <path
     d="m 997.77644,241.73303 c -41,-28.8 -102.1,27.2 -72.3,55 24.8,23.1 84.69996,-19 72.3,-55 m -68.5,23.9 c 3.1,-11.8 24.7,-29 41.1,-26.3 -3.3,11.4 -20.7,3.9 -30.1,19.4 0.7,26.3 27.9,33.6 38.7,12.5 16.3,-3.1 -1.2,13.5 -10.1,20.3 -23.1,8.1 -43.4,5.2 -39.6,-25.9 z"
     class="g3_1"
     id="path24"
     inkscape:connector-curvature="0"
     style="fill:#231f20;fill-rule:evenodd" />
  <path
     d="m 791.97644,457.93303 c -25.8,-39.3 31.3,-94.8 3.7,-130.6 5,45.1 -52.5,108.7 -18,150.3 19,22.9 119.3,16.1 165.4,-19.3 -36.1,27.8 -138.9,18.1 -151.1,-0.4 z"
     class="g3_1"
     id="path26"
     inkscape:connector-curvature="0"
     style="fill:#231f20;fill-rule:evenodd" />
  <path
     d="m 945.17644,421.33303 c -76.1,45.3 -93.7,-32.1 -90.1,-65.5 -6.2,24.9 -19.6,52.6 1.5,83.7 20.5,5.5 68.4,3 88.6,-18.2 z"
     class="g3_1"
     id="path28"
     inkscape:connector-curvature="0"
     style="fill:#231f20;fill-rule:evenodd" />
  <path
     d="m 754.17644,569.23303 c 2.7,11.9 -15,39.6 -0.1,41.3 0.4,-11.5 21.3,-38.5 0.1,-41.3 z"
     class="g3_1"
     id="path30"
     inkscape:connector-curvature="0"
     style="fill:#231f20;fill-rule:evenodd" />
  <path
     d="m 347.87644,766.63303 c 5.2,25.5 -14,83.5 -12.9,83.4 15.8,-22.8 34.7,-64.7 12.9,-83.4 z"
     class="g3_1"
     id="path32"
     inkscape:connector-curvature="0"
     style="fill:#231f20;fill-rule:evenodd" />
  <path
     d="m 779.07644,608.73303 c 2.2,-17.1 16.8,-31.8 10.5,-50.6 -18.4,11.7 -18.3,46.4 -10.5,50.6 z"
     class="g3_1"
     id="path34"
     inkscape:connector-curvature="0"
     style="fill:#231f20;fill-rule:evenodd" />
  <path
     d="m 844.37644,604.33303 c 1,-23.6 16,-44.9 -1.6,-71.6 -16.5,18.6 -4.5,61.7 1.6,71.6 z"
     class="g3_1"
     id="path36"
     inkscape:connector-curvature="0"
     style="fill:#231f20;fill-rule:evenodd" />
  <path
     d="m 333.87644,778.43303 c 1.2,19 -0.4,37.4 -14.2,53.1 19.8,-11.9 28,-46.1 14.2,-53.1 z"
     class="g3_1"
     id="path38"
     inkscape:connector-curvature="0"
     style="fill:#231f20;fill-rule:evenodd" />
  <path
     d="m 809.27644,608.63303 c 4.2,-19.2 15.8,-37.1 5.9,-59 -16.4,14.6 -10.8,52.9 -5.9,59 z"
     class="g3_1"
     id="path40"
     inkscape:connector-curvature="0"
     style="fill:#231f20;fill-rule:evenodd" />
  <path
     d="m 593.57644,938.53303 c -30,10.6 -81.7,40.9 -79.7,53.3 27.1,-12.4 111.3,-64.4 79.7,-53.3 z"
     class="g3_1"
     id="path42"
     inkscape:connector-curvature="0"
     style="fill:#231f20;fill-rule:evenodd" />
  <path
     d="m 572.07644,990.03303 c -19,10.69997 -32,9.4 -46.9,11.89997 4.8,12.9 42.9,0.8 46.9,-11.89997 z"
     class="g3_1"
     id="path44"
     inkscape:connector-curvature="0"
     style="fill:#231f20;fill-rule:evenodd" />
  <path
     d="m 623.57644,824.03303 c -60.5,41.4 -114.2,84.3 -140.1,133.5 34.8,-29.9 100.8,-104.6 140.1,-133.5 z"
     class="g3_1"
     id="path46"
     inkscape:connector-curvature="0"
     style="fill:#231f20;fill-rule:evenodd" />
  <path
     d="m 493.17644,975.93303 c 40.7,-23.7 84,-78.3 137.3,-111.6 -57.3,34.6 -110.1,70.2 -137.3,111.6 z"
     class="g3_1"
     id="path48"
     inkscape:connector-curvature="0"
     style="fill:#231f20;fill-rule:evenodd" />
  <path
     d="m 623.47644,1001.633 c -35.8,14.5 -65.2,16.1 -95.6,19.6 15.9,16.2 93.8,-9.9 95.6,-19.6 z"
     class="g3_1"
     id="path50"
     inkscape:connector-curvature="0"
     style="fill:#231f20;fill-rule:evenodd" />
  <path
     d="m 592.67644,1047.233 c 20,-2.8 71,-13.9 52.1,-14.5 -42.4,8.7 -80.5,8.4 -119.7,10.5 7.2,9.1 43.4,7.3 67.6,4 z"
     class="g3_1"
     id="path52"
     inkscape:connector-curvature="0"
     style="fill:#231f20;fill-rule:evenodd" />
  <path
     d="m 515.67644,1078.533 c 22,-5.5 55.7,8.3 68.9,-6.9 -24.4,10.2 -63.4,-17.8 -68.9,6.9 z"
     class="g3_1"
     id="path54"
     inkscape:connector-curvature="0"
     style="fill:#231f20;fill-rule:evenodd" />
  <path
     d="m 508.77644,1095.933 c 43.4,25.1 140.2,14.3 220.1,-6.5 -60.8,9.6 -153.4,12.2 -220.1,6.5 z"
     class="g3_1"
     id="path56"
     inkscape:connector-curvature="0"
     style="fill:#231f20;fill-rule:evenodd" />
  <path
     d="m 611.97644,1074.133 c 30.3,-6 77.2,-2 104.4,-29 -34.2,17.9 -102.2,21.1 -104.4,29 z"
     class="g3_1"
     id="path58"
     inkscape:connector-curvature="0"
     style="fill:#231f20;fill-rule:evenodd" />
  <path
     d="m 432.37644,411.23303 c -2.9,-5 -11.6,-5.6 -19.6,-1.3 -7.9,4.2 -12,11.7 -9.1,16.8 2.9,5 11.7,5.6 19.6,1.3 8,-4.2 12,-11.8 9.1,-16.8 z"
     class="g3_1"
     id="path60"
     inkscape:connector-curvature="0"
     style="fill:#231f20;fill-rule:evenodd" />
  <path
     d="m 347.47644,480.33303 c 8,-4.2 12,-11.8 9.1,-16.8 -2.9,-5 -11.6,-5.6 -19.6,-1.3 -7.9,4.2 -12,11.7 -9.1,16.7 2.9,5.1 11.7,5.7 19.6,1.4 z"
     class="g3_1"
     id="path62"
     inkscape:connector-curvature="0"
     style="fill:#231f20;fill-rule:evenodd" />
  <path
     d="m 427.77644,461.23303 c -11,5.9 -16.7,16.4 -12.7,23.4 4.1,7 16.3,7.8 27.3,1.9 11,-5.9 16.7,-16.4 12.7,-23.4 -4.1,-6.9 -16.3,-7.8 -27.3,-1.9 z"
     class="g3_1"
     id="path64"
     inkscape:connector-curvature="0"
     style="fill:#231f20;fill-rule:evenodd" />
  <path
     d="m 184.37644,757.83303 c -8.1,3.9 -12.7,11.2 -10.2,16.4 2.5,5.3 11.1,6.4 19.2,2.5 8.1,-3.8 12.7,-11.2 10.2,-16.4 -2.5,-5.3 -11.1,-6.4 -19.2,-2.5 z"
     class="g3_1"
     id="path66"
     inkscape:connector-curvature="0"
     style="fill:#231f20;fill-rule:evenodd" />
  <path
     d="m 215.57644,1060.933 c 2.5,5.3 11.1,6.4 19.2,2.5 8.2,-3.8 12.7,-11.2 10.3,-16.4 -2.5,-5.3 -11.1,-6.4 -19.3,-2.5 -8.1,3.8 -12.7,11.2 -10.2,16.4 z"
     class="g3_1"
     id="path68"
     inkscape:connector-curvature="0"
     style="fill:#231f20;fill-rule:evenodd" />
  <path
     d="m 406.87644,1016.933 c -8.1,3.8 -12.7,11.2 -10.2,16.4 2.4,5.2 11,6.3 19.2,2.5 8.1,-3.9 12.7,-11.2 10.2,-16.5 -2.5,-5.2 -11.1,-6.3 -19.2,-2.4 z"
     class="g3_1"
     id="path70"
     inkscape:connector-curvature="0"
     style="fill:#231f20;fill-rule:evenodd" />
  <path
     d="m 332.77644,548.43303 c 8.1,-3.9 12.7,-11.2 10.3,-16.5 -2.5,-5.2 -11.1,-6.3 -19.3,-2.4 -8.1,3.8 -12.7,11.2 -10.2,16.4 2.5,5.2 11.1,6.4 19.2,2.5 z"
     class="g3_1"
     id="path72"
     inkscape:connector-curvature="0"
     style="fill:#231f20;fill-rule:evenodd" />
  <path
     d="m 152.97644,975.23303 c 8.1,-3.8 12.7,-11.2 10.2,-16.4 -2.4,-5.2 -11,-6.3 -19.2,-2.5 -8.1,3.9 -12.7,11.2 -10.2,16.5 2.5,5.2 11.1,6.3 19.2,2.4 z"
     class="g3_1"
     id="path74"
     inkscape:connector-curvature="0"
     style="fill:#231f20;fill-rule:evenodd" />
  <path
     d="m 200.87644,664.03303 c -6.5,3.1 -10.1,8.9 -8.1,13 1.9,4.1 8.7,5 15.1,2 6.4,-3.1 10,-8.9 8.1,-13 -2,-4.1 -8.7,-5 -15.1,-2 z"
     class="g3_1"
     id="path76"
     inkscape:connector-curvature="0"
     style="fill:#231f20;fill-rule:evenodd" />
  <path
     d="m 244.77644,542.43303 c 1.1,2.3 3.1,4 5.5,5.1 5.5,2.5 13.6,2 21.3,-1.7 11.4,-5.3 17.7,-15.6 14.3,-22.9 -3.5,-7.3 -15.5,-8.8 -26.8,-3.4 -0.4,0.1 -0.8,0.4 -1.1,0.6 -10.7,5.5 -16.5,15.3 -13.2,22.3 z"
     class="g3_1"
     id="path78"
     inkscape:connector-curvature="0"
     style="fill:#231f20;fill-rule:evenodd" />
  <path
     d="m 207.57644,1036.133 c 11.3,-5.4 17.7,-15.7 14.2,-23 -3.4,-7.3 -15.4,-8.8 -26.7,-3.4 -11.4,5.4 -17.8,15.6 -14.3,22.9 3.4,7.3 15.4,8.8 26.8,3.5 z"
     class="g3_1"
     id="path80"
     inkscape:connector-curvature="0"
     style="fill:#231f20;fill-rule:evenodd" />
  <path
     d="m 486.37644,485.33303 c -12.8,6.1 -20,17.7 -16.1,25.9 3.9,8.2 17.4,10 30.3,3.9 12.8,-6.1 20,-17.7 16.1,-25.9 -3.9,-8.3 -17.5,-10 -30.3,-3.9 z"
     class="g3_1"
     id="path82"
     inkscape:connector-curvature="0"
     style="fill:#231f20;fill-rule:evenodd" />
  <path
     d="m 669.37644,416.43303 c -12.8,6.1 -20,17.7 -16.1,26 3.9,8.2 17.4,10 30.3,3.9 12.8,-6.1 20,-17.7 16.1,-26 -3.9,-8.2 -17.5,-9.9 -30.3,-3.9 z"
     class="g3_1"
     id="path84"
     inkscape:connector-curvature="0"
     style="fill:#231f20;fill-rule:evenodd" />
  <path
     d="m 379.97644,541.43303 c -12.8,6.1 -20.1,17.7 -16.1,26 3.9,8.2 17.4,9.9 30.2,3.9 12.9,-6.1 20.1,-17.7 16.2,-26 -3.9,-8.2 -17.5,-9.9 -30.3,-3.9 z"
     class="g3_1"
     id="path86"
     inkscape:connector-curvature="0"
     style="fill:#231f20;fill-rule:evenodd" />
  <path
     d="m 223.37644,696.83303 c 2.9,6.2 11.3,8.7 20.7,7 3.1,-0.5 6.4,-1.6 9.6,-3.1 12.8,-6.1 20,-17.7 16.1,-25.9 -3.8,-8 -16.9,-9.9 -29.5,-4.2 -0.2,0.1 -0.5,0.2 -0.8,0.3 -12.8,6.1 -20,17.7 -16.1,25.9 z"
     class="g3_1"
     id="path88"
     inkscape:connector-curvature="0"
     style="fill:#231f20;fill-rule:evenodd" />
  <path
     d="m 319.37644,607.53303 c -3.9,-8.3 -17.4,-10 -30.2,-3.9 -12.9,6 -20.1,17.7 -16.2,25.9 3.9,8.2 17.5,10 30.3,3.9 12.8,-6.1 20.1,-17.7 16.1,-25.9 z"
     class="g3_1"
     id="path90"
     inkscape:connector-curvature="0"
     style="fill:#231f20;fill-rule:evenodd" />
  <path
     d="m 553.67644,350.73303 c -4.1,-4.9 -13.9,-4.5 -22,1 -8,5.5 -11.2,14 -7.1,18.9 4.1,4.9 13.9,4.4 21.9,-1.1 8.1,-5.5 11.3,-13.9 7.2,-18.8 z"
     class="g3_1"
     id="path92"
     inkscape:connector-curvature="0"
     style="fill:#231f20;fill-rule:evenodd" />
  <path
     d="m 574.47644,412.93303 c 8.1,-5.5 11.3,-14 7.2,-18.9 -4.1,-4.9 -13.9,-4.4 -22,1.1 -8,5.5 -11.2,13.9 -7.2,18.8 4.1,5 14,4.5 22,-1 z"
     class="g3_1"
     id="path94"
     inkscape:connector-curvature="0"
     style="fill:#231f20;fill-rule:evenodd" />
  <path
     d="m 124.97644,935.93303 c -4.1,-4.9 -13.9,-4.4 -22,1.1 -8,5.5 -11.2,13.9 -7.2,18.9 4.1,4.9 14,4.4 22,-1.1 8.1,-5.5 11.3,-13.9 7.2,-18.9 z"
     class="g3_1"
     id="path96"
     inkscape:connector-curvature="0"
     style="fill:#231f20;fill-rule:evenodd" />
  <path
     d="m 751.77644,273.73303 c -6.3,1 -11.5,7.1 -11.5,13.6 0,6.5 5.1,11 11.4,10 6.3,-1 11.5,-7.1 11.5,-13.6 0,-6.5 -5.1,-11 -11.4,-10 z"
     class="g3_1"
     id="path98"
     inkscape:connector-curvature="0"
     style="fill:#231f20;fill-rule:evenodd" />
  <path
     d="m 702.67644,331.93303 c 7.2,-3.4 11.3,-10 9.1,-14.6 -2.2,-4.6 -9.8,-5.6 -17.1,-2.2 -7.2,3.4 -11.3,10 -9.1,14.6 2.2,4.7 9.9,5.7 17.1,2.2 z"
     class="g3_1"
     id="path100"
     inkscape:connector-curvature="0"
     style="fill:#231f20;fill-rule:evenodd" />
  <path
     d="m 652.27644,367.03303 c -2.2,-4.6 -9.9,-5.6 -17.1,-2.1 -7.2,3.4 -11.3,9.9 -9.1,14.6 2.2,4.6 9.9,5.6 17.1,2.2 7.2,-3.5 11.3,-10 9.1,-14.7 z"
     class="g3_1"
     id="path102"
     inkscape:connector-curvature="0"
     style="fill:#231f20;fill-rule:evenodd" />
  <path
     d="m 574.57644,448.73303 c -11.7,5.5 -18.3,16.1 -14.7,23.6 3.5,7.5 15.9,9.1 27.5,3.5 11.7,-5.5 18.3,-16.1 14.7,-23.6 -3.5,-7.5 -15.9,-9.1 -27.5,-3.5 z"
     class="g3_1"
     id="path104"
     inkscape:connector-curvature="0"
     style="fill:#231f20;fill-rule:evenodd" />
  <path
     d="m 492.67644,414.83303 c 6.9,-3.2 10.8,-9.5 8.7,-13.9 -2.1,-4.5 -9.4,-5.4 -16.3,-2.1 -6.9,3.3 -10.8,9.5 -8.7,13.9 2.1,4.5 9.4,5.4 16.3,2.1 z"
     class="g3_1"
     id="path106"
     inkscape:connector-curvature="0"
     style="fill:#231f20;fill-rule:evenodd" />
  <path
     d="m 714.47644,356.73303 c -9.4,4.5 -14.7,13 -11.8,19 2.9,6 12.8,7.3 22.1,2.8 9.4,-4.4 14.7,-12.9 11.8,-18.9 -2.8,-6 -12.8,-7.3 -22.1,-2.9 z"
     class="g3_1"
     id="path108"
     inkscape:connector-curvature="0"
     style="fill:#231f20;fill-rule:evenodd" />
  <path
     d="m 122.57644,785.03303 c 5.3,-2.5 8,-7.6 6.2,-11.5 -1.9,-3.8 -7.6,-5 -12.8,-2.5 -5.2,2.5 -8,7.6 -6.1,11.5 1.8,3.9 7.5,5 12.7,2.5 z"
     class="g3_1"
     id="path110"
     inkscape:connector-curvature="0"
     style="fill:#231f20;fill-rule:evenodd" />
  <path
     d="m 277.07644,1050.133 c -5.3,2.5 -8,7.6 -6.2,11.5 1.9,3.9 7.6,5 12.8,2.5 5.2,-2.5 8,-7.6 6.1,-11.5 -1.8,-3.8 -7.5,-5 -12.7,-2.5 z"
     class="g3_1"
     id="path112"
     inkscape:connector-curvature="0"
     style="fill:#231f20;fill-rule:evenodd" />
  <path
     d="m 129.87644,821.93303 c -1.9,-3.8 -7.6,-4.9 -12.8,-2.5 -5.2,2.5 -8,7.6 -6.1,11.5 1.8,3.9 7.5,5 12.8,2.5 5.2,-2.4 7.9,-7.6 6.1,-11.5 z"
     class="g3_1"
     id="path114"
     inkscape:connector-curvature="0"
     style="fill:#231f20;fill-rule:evenodd" />
  <path
     d="m 162.67644,821.03303 c -5.2,2.5 -8,7.6 -6.1,11.5 1.8,3.8 7.5,5 12.7,2.5 5.3,-2.5 8,-7.6 6.2,-11.5 -1.9,-3.9 -7.6,-5 -12.8,-2.5 z"
     class="g3_1"
     id="path116"
     inkscape:connector-curvature="0"
     style="fill:#231f20;fill-rule:evenodd" />
  <path
     d="m 136.97644,858.93303 c -5.3,2.5 -8,7.7 -6.2,11.5 1.9,3.9 7.6,5 12.8,2.6 5.2,-2.5 8,-7.7 6.1,-11.5 -1.8,-3.9 -7.5,-5 -12.7,-2.6 z"
     class="g3_1"
     id="path118"
     inkscape:connector-curvature="0"
     style="fill:#231f20;fill-rule:evenodd" />
  <path
     d="m 164.27644,739.33303 c -1.9,-3.9 -7.6,-5 -12.8,-2.5 -5.2,2.5 -8,7.6 -6.1,11.5 1.8,3.8 7.5,5 12.7,2.5 5.3,-2.5 8,-7.6 6.2,-11.5 z"
     class="g3_1"
     id="path120"
     inkscape:connector-curvature="0"
     style="fill:#231f20;fill-rule:evenodd" />
  <path
     d="m 343.67644,1040.133 c 5.2,-2.4 8,-7.6 6.1,-11.5 -1.8,-3.8 -7.5,-5 -12.8,-2.5 -5.2,2.5 -7.9,7.6 -6.1,11.5 1.9,3.9 7.6,5 12.8,2.5 z"
     class="g3_1"
     id="path122"
     inkscape:connector-curvature="0"
     style="fill:#231f20;fill-rule:evenodd" />
  <path
     d="m 127.57644,735.63303 c 7.4,-3.5 11.3,-10.8 8.7,-16.3 -2.6,-5.5 -10.7,-7.1 -18.1,-3.6 -7.4,3.5 -11.3,10.8 -8.7,16.3 2.6,5.5 10.7,7.1 18.1,3.6 z"
     class="g3_1"
     id="path124"
     inkscape:connector-curvature="0"
     style="fill:#231f20;fill-rule:evenodd" />
  <path
     d="m 334.07644,1062.033 c -7.4,3.5 -11.3,10.8 -8.7,16.3 2.6,5.5 10.7,7.1 18.1,3.6 7.4,-3.5 11.3,-10.8 8.7,-16.3 -2.6,-5.5 -10.7,-7.1 -18.1,-3.6 z"
     class="g3_1"
     id="path126"
     inkscape:connector-curvature="0"
     style="fill:#231f20;fill-rule:evenodd" />
  <path
     d="m 154.07644,687.63303 c 9.3,-4.4 14.3,-13.7 11,-20.6 -3.3,-7 -13.6,-9 -23,-4.5 -9.3,4.4 -14.3,13.6 -11,20.6 3.3,6.9 13.6,9 23,4.5 z"
     class="g3_1"
     id="path128"
     inkscape:connector-curvature="0"
     style="fill:#231f20;fill-rule:evenodd" />
  <path
     d="m 199.07644,625.73303 c 11.3,-5.4 17.3,-16.6 13.2,-25 -3.9,-8.4 -16.4,-10.8 -27.7,-5.4 -11.3,5.3 -17.3,16.5 -13.3,24.9 4,8.4 16.4,10.9 27.8,5.5 z"
     class="g3_1"
     id="path130"
     inkscape:connector-curvature="0"
     style="fill:#231f20;fill-rule:evenodd" />
  <path
     d="m 203.77644,1173.633 c -0.7,0 -1.4,-0.1 -2.1,-0.2 -72.7,-19.4 -93.3,-78.7 -115.2,-141.5 -7.7,-22 1.4,-26.4 -9,-47.99997 -25.7,-65.3 -34.8,-154.4 -19.8,-211.5 16.7,-58.6 53.6,-131.1 106.6,-198.7 -2.8,1.4 -23,9.9 -25.8,11.4 -6.6,3.7 -12.1,12.3 -28.7,13.7 -2.1,-2.7 -2.2,-6.4 -0.4,-9.3 27.4,-43.6 40.8,-92 39.9,-143.8 -0.1,-3 1.5,-5.8 4.1,-7.3 51.9,-28.8 108.1,-41.2 162.3,-53.2 l 10.7,-2.3 c 33.3,-7.4 65.7,-14.9 97.9,-26.6 30.4,-11.1 65,-20.3 94.8,-34.7 28.6,-13.8 56.2,-30 85.7,-41.2 42.9,-16.1 85.2,-32.2 118.9,-41.1 16,-4.2 32.1,-9.6 47.8,-13.6 36.1,-9.1 70.1,-16.4 103.6,-26.6 62.6,-19.1 113.9,-28.7 156.79996,-29.3 1.4,0 2.7,0 4.1,0 31.8,0 59.1,5.2 81,15.5 3,1.5 4.9,4.6 4.7,7.9 -1.1,17.9 -12.7,32.9 -25.1,46.3 -2.4,2.7 -4.9,5.3 -7.4,7.9 -14.6,15.4 -31.4,41.8 -30.8,58.6 17.5,-2.9 28.4,-13 41.1,-24.7 3.3,-3 14.9,-10.3 18.4,-13.3 9.5,-8.2 21.6,-13.7 37.4,-19.4 9.9,-2.9 7.2,8.9 5,7.8 -4.5,16.4 -5.3,24.4 -15.2,41.2 -32.2,54.5 -90.7,101.4 -146.19996,148.8 l -0.8,0.7 c -21,17.9 -42.7,36.4 -63,55.3 -1.5,1.4 -3.5,2.2 -5.5,2.2 -1.7,0 -3.4,-0.6 -4.9,-1.7 -3.2,-2.4 6.2,-5 7.9,-8.5 11.1,-21.7 29.9,-37.2 59.2,-63.4 13.19996,-11.9 35.19996,-26.1 49.09996,-37.5 39.1,-32.2 94.2,-88.9 102.9,-125.6 -38.7,14.9 -95,66.8 -131.2,112 -1.6,1.8 -0.2,4 -2.5,4 -1.7,0 -3.5,-0.6 -5,-1.8 -40.19996,-31.8 -11.69996,-75.4 7.2,-104.3 1.1,-1.7 2.2,-3.4 3.3,-5 1.5,-2.4 4,-3.8 6.8,-3.8 0.1,0 0.2,0 0.3,0 2.8,0.1 -0.5,0.9 0.9,3.4 -3.8,10.8 -41.69996,46.1 -23.59996,82.8 9.49996,20.3 24.49996,12.4 31.99996,-3.2 7.1,-47.2 43.8,-110.5 71,-148.1 2.2,-3.2 -38.3,-16.5 -45.7,-17.6 -59.99996,-15.4 -145.79996,20.8 -199.59996,39.6 -22.1,7.7 -58.2,19.5 -80.7,26.6 -26,8.3 -57.9,15.6 -85,19.5 -18.2,2.7 -40.9,9.3 -59.1,16 -28,10.4 -61.5,26.3 -88.4,39.8 -32.9,16.6 -72.6,29.9 -107.5,40.7 -40.5,12.5 -79.6,18.6 -120.8,27.2 -47.8,10 -101.1,25 -142.4,56 -5.8,13.4 -8.2,40.8 -11.9,55.5 -4.3,17.4 -20.3,45.4 -28.9,62.5 3.9,-0.9 28,-15.6 32.7,-17.5 7.7,-3.1 15.6,-6.3 22.9,-6.3 0.3,0 0.6,0 0.9,0 3.1,0.2 5.8,2 7.1,4.7 1.3,2.8 -4.8,11.7 -6.6,14.1 -35,45.8 -83.7,104.4 -105.4,165.4 -26.1,73.5 -14.5,126.7 31.7,170.3 14.8,14.1 34.3,29.3 67.1,29.3 9.1,3.5 39.9,-2.5 50.3,-6.5 8.4,-33.2 18.2,-67 39.1,-95.9 l 11.7,-9.8 c 10.4,-14.5 14.8,-27.5 23.4,-43.6 1.4,-2.7 4.3,-4.3 7.2,-4.3 1.3,0 2.6,0.3 3.8,1 -3.3,2.1 -25,105.5 -5.8,120.3 36.6,-18.3 57.5,-70.7 58.4,-103.7 0.5,-18.4 -14,-41.3 -7.9,-59.4 1.2,-3.3 4.3,-5.5 7.7,-5.5 0.1,0 0.2,0 0.2,0 3.9,0.1 7,1.4 9.2,2.4 1.4,0.6 2.4,1 3,1 0.7,0 2.9,7.5 4.1,6.9 63.1,-59.5 145.2,-76.8 225.8,-97 33.6,-8.4 64.1,-15.9 93.8,-26.5 13,-6.9 11.8,-24.9 10.5,-28.2 -1.2,-2.9 -0.6,-6.2 1.5,-8.5 1.6,-1.7 3.8,-2.7 6,-2.7 0.8,0 1.6,0.1 2.4,0.3 20.5,6.2 3.6,36.8 0.4,49.4 -0.9,3.3 5,6.6 4.5,9.7 39.9,2.9 82.5,23.7 112.1,48.6 33.7,-44.1 47.2,-98.6 5.6,-149.5 -1.4,-3.6 -0.1,-7.8 3.3,-9.8 1.3,-0.9 2.8,-1.3 4.3,-1.3 2.2,0 4.4,0.9 6,2.6 43.1,46.7 25.5,103.7 11.4,149.6 -3,9.6 -5.8,18.6 -7.9,27.2 -0.7,2.5 -2.5,4.6 -4.8,5.6 -1,0.4 -2.1,0.6 -3.1,0.6 -1.5,0 -2.9,-0.4 -4.2,-1.2 -8.8,-5.3 -17.4,-11.1 -25.7,-16.8 -28.2,-19.1 -54.8,-37.2 -90.3,-37.2 -10.4,0 -21.4,1.6 -32.6,4.8 -0.8,0.2 -1.5,0.3 -2.2,0.3 -2.9,0 -5.6,-1.5 -7.1,-4.1 -5.9,-10.3 -0.4,-18.5 4.2,-23.8 -49.3,24.5 -95.9,36.4 -141.2,48 -60.9,15.6 -118.5,30.3 -175.3,74.5 -0.5,8.3 -0.6,16.8 -0.8,25.1 -0.8,44.8 -1.7,91.2 -51.4,126.9 -6.1,4.3 -12.8,8.4 -19.8,12.1 -1.2,0.6 -2.5,1 -3.8,1 -0.8,0 -1.7,-0.2 -2.6,-0.5 -2.1,-0.7 -3.8,-2.2 -4.8,-4.3 -9.2,-19.7 -8.9,-37.4 -8.7,-52.9 v -0.8 c 0.1,-2.6 1.4,-18.2 1.4,-20.8 -23,17.9 -37.5,52.4 -43.8,81.8 2.7,7.1 7.2,10.4 12.7,14.5 6.8,4.9 15.3,11 19.4,24.8 0.7,2.3 0.3,4.7 -1,6.7 -4.2,6.6 -8.8,13.8 -17.7,20 20.3,5.6 42.8,10 66.2,10 25.4,0 48.8,-5.2 71.5,-16 3.9,-1.8 7.8,-3.9 12,-6.2 46.7,-26.7 73.5,-70.1 101.8,-116 35.6,-57.8 72.5,-117.6 152.2,-148.3 1,-0.4 2,-0.5 3,-0.5 3.1,0 6.1,1.8 7.5,4.9 13.7,32.7 6,71.3 -1.4,108.6 -6.9,34.6 -14.1,70.4 -4.2,101 13.5,42.2 56.4,79.4 109.4,94.79997 17.2,5 34.8,7.5 52.4,7.5 17.9,0 35.6,-2.7 52.4,-8 0.8,-0.2 1.6,-0.3 2.5,-0.3 2.6,0 5.1,1.2 6.6,3.4 2,2.9 2,6.8 -0.2,9.6 -60.2,79.6 -166,119.9 -314.4,119.9 -14.3,0 -29.3,-0.4 -44.5,-1.1 -20.9,-1.1 -42.7,-1.8 -63.8,-2.5 -69.7,-2.3 -141.7,-4.7 -206.2,-18.5 -31.7,-6.8 -61.7,-23.6 -85.7,-35.1 0.8,3.6 4.1,15.3 4.8,19.3 3.3,19.4 7.1,41.3 22.2,51.5 3.3,2.2 4.5,6.5 2.8,10.1 -1.3,2.9 -4.3,4.7 -7.4,4.7 m 261.3,-55.8 c 54.4,7.5 119.4,11.5 162.3,11.5 53.5,0 131.2,-19.2 211.5,-78.1 -67.9,-24.1 -130.5,-7.9 -173.4,-95.29997 -23.9,-48.6 -23.7,-102 -16.6,-150.4 2.6,-17.7 10.6,-51.7 11.6,-67.7 -63.2,25.2 -98.2,70.1 -122.2,114.3 -19.3,35.5 -44.4,80.9 -77.6,115.2 29.6,9.3 50.8,30.6 56,57.79997 5.7,29.3 -15.4,70.1 -51.6,92.7 m -396.5,-250.59997 c 3.7,62.4 36.5,125.8 63.6,155.29997 54.1,58.7 133.1,95.4 211.7,95.4 27.9,0 73.5,-3.7 97.8,-12.6 43,-15.8 53.3,-62.6 47.3,-80.6 -6.3,-18.7 -20.5,-34.59997 -50.4,-34.59997 -22.7,0 -43.6,8 -70.3,12.79997 -35.7,8.9 -67.2,5 -67.2,5 0,0 -70.1,-12.19997 -76.1,-38.59997 2.4,-0.1 48,-15.8 29,-28.3 -2.4,0 -43.4,7.9 -88.4,5.1 -39.1,-4.3 -69.8,-34.3 -97,-78.9 z"
     class="g3_1"
     id="path132"
     inkscape:connector-curvature="0"
     style="fill:#231f20;fill-rule:evenodd" />
  <path
     d="m 107.87644,1035.133 c 2.5,8.4 -0.6,34.4 16,33.6 -2.1,-6.7 -9.3,-14.6 -2.7,-19.4 5.3,33.5 40.9,49.2 39.3,69 -14.5,1.8 -16.3,-22 -30,-21.8 11.1,21.5 24.8,37.8 45.3,40.3 -6.4,-37.2 -31.7,-98 -67.9,-101.7 z"
     class="g2_1"
     id="path134"
     inkscape:connector-curvature="0"
     style="fill:#ffffff;fill-rule:evenodd" />
  <path
     d="m 164.67644,995.43303 c -2.6,-5.5 -10.7,-7.1 -18.1,-3.6 -7.4,3.5 -11.3,10.79997 -8.7,16.29997 2.6,5.5 10.7,7.1 18.1,3.6 7.4,-3.5 11.3,-10.8 8.7,-16.29997 z"
     class="g3_1"
     id="path136"
     inkscape:connector-curvature="0"
     style="fill:#231f20;fill-rule:evenodd" />
  <path
     d="m 337.17644,323.73303 -19.3,12 -54.3,-102.3 67.1,35.9 -22.9,-73 90.6,71.8 -14.7,16.6 -37.8,-32.8 17.1,55.9 -51.5,-27 z"
     class="g2_1"
     id="path138"
     inkscape:connector-curvature="0"
     style="fill:#ffffff" />
  <path
     d="m 393.97644,212.53303 c 7.7,14.9 24.2,22.4 35.7,16.5 11.6,-6 14.7,-23.7 6.8,-39 -7.8,-15 -24.4,-22.8 -36.1,-16.7 -11.6,6 -14.4,23.7 -6.4,39.2 m 32,-63 c 12.4,5.3 23.6,16.2 30.6,29.7 15,29.2 8.4,60.2 -15.7,72.7 -23.1,11.9 -52.6,-0.8 -67.2,-29.1 -14.9,-28.7 -8.4,-60.1 14.9,-72.1 12.5,-6.5 24.5,-6.8 37.4,-1.2 z"
     class="g2_1"
     id="path140"
     inkscape:connector-curvature="0"
     style="fill:#ffffff" />
  <path
     d="m 577.67644,202.33303 c -2.8,2.6 -3.9,3.4 -7,4.7 -3.1,1.5 -6.9,2.8 -9.9,3.5 -24.6,5.3 -50.4,-15.5 -57.1,-46.2 -3.1,-14.2 -1.3,-29.9 4.9,-42.1 6.3,-12.7 16.3,-20.5 30,-23.5 5.1,-1.1 9,-1.3 15.4,-0.5 l 10.2,28.7 c -8.2,-4 -12.8,-4.8 -19.3,-3.4 -14.1,3 -22.5,19.3 -18.8,36.3 3.6,16.7 18,28.2 31.8,25.2 6.5,-1.4 11.3,-4.9 16.4,-11.9 z m -66.2,-132.6 13.8,6.8 10.1,-12 12.7,-2.8 -19.3,30.8 -29.6,-20.1 z"
     class="g2_1"
     id="path142"
     inkscape:connector-curvature="0"
     style="fill:#ffffff" />
  <path
     d="m 607.07644,145.43303 c 1.8,0.2 3.5,0.3 4.6,0.3 6.3,-0.4 11.5,-7.8 11,-16.4 -0.4,-8.9 -5.7,-14.5 -13.4,-14.1 -0.7,0 -2.2,0.2 -3.6,0.5 z m -24.2,-51.1 c 4.8,-0.7 6.2,-0.8 11.3,-1.3 5.3,-0.5 11,-0.9 14.1,-1 11.4,-0.6 18.7,1 24.7,5.5 7,5.1 11.8,15.2 12.3,26 0.6,12.7 -3.7,22.7 -12.6,28.8 l 25.8,40.1 -21.7,9.5 -29.4,-49.7 2.7,47.7 -21.9,4.3 z"
     class="g2_1"
     id="path144"
     inkscape:connector-curvature="0"
     style="fill:#ffffff" />
  <path
     d="m 677.87644,170.33303 c 5.6,8.2 9.9,11.4 17.2,12.3 7.6,0.9 12.8,-2.5 13.6,-9.3 0.4,-3.2 -0.5,-5.8 -2.5,-7.5 -1.6,-1.5 -3.5,-2.6 -5.5,-3.5 l -2.8,-1.3 -2.7,-1.2 -2.8,-1.1 c -8.1,-3.8 -13.3,-8.4 -16.6,-14.9 -3,-6.1 -4.2,-13.4 -3.4,-20 2.5,-20 17.8,-32.6 36.8,-30.2 11.6,1.5 19.8,6.1 28.3,15.8 l -15.4,17.6 c -4.6,-6.3 -8.3,-8.7 -15,-9.6 -6.5,-0.8 -11.2,2.2 -11.9,7.9 -0.6,4.7 2.2,7.5 10.7,11.3 7,3 10,4.7 13.2,7.2 9.8,7.8 14,18.4 12.3,31.5 -1.3,10.7 -6.9,20.4 -14.9,26 -6.3,4.5 -14.6,6.2 -23.4,5.1 -13.8,-1.7 -20.7,-5.8 -30.6,-18.2 z"
     class="g2_1"
     id="path146"
     inkscape:connector-curvature="0"
     style="fill:#ffffff" />
  <path
     d="m 1127.1764,385.93303 12.2,20.1 -49.1,39.1 62.8,-7.3 6.1,22.2 -122.6,7.1 z"
     class="g2_1"
     id="path148"
     inkscape:connector-curvature="0"
     style="fill:#ffffff" />
  <path
     d="m 1101.3764,515.33303 53.1,-48.5 14.9,18.2 -36.8,33.5 46.3,4.1 -2,22.2 -112.7,-10.9 -2,-23.7 z"
     class="g2_1"
     id="path150"
     inkscape:connector-curvature="0"
     style="fill:#ffffff" />
  <path
     d="m 1107.1764,567.43303 c -6.8,7.3 -8.9,12.2 -8.1,19.5 0.8,7.7 5.3,11.9 12.1,11.2 3.3,-0.4 5.6,-1.8 6.8,-4.2 1.1,-1.9 1.7,-4 2.1,-6.2 l 0.7,-3 0.5,-2.9 0.5,-3 c 1.8,-8.7 5.1,-14.8 10.7,-19.4 5.2,-4.4 12.1,-7.2 18.7,-7.9 20.1,-2.2 35.7,9.9 37.8,28.9 1.2,11.7 -1.5,20.7 -9,31.1 l -20.6,-10.9 c 5.1,-5.9 6.6,-10.1 5.9,-16.9 -0.7,-6.4 -4.7,-10.3 -10.4,-9.7 -4.7,0.5 -6.8,3.8 -8.6,13 -1.3,7.5 -2.2,10.8 -4,14.5 -5.3,11.2 -14.8,17.7 -27.9,19.1 -10.6,1.2 -21.4,-2.1 -28.7,-8.6 -5.7,-5.1 -9.3,-12.8 -10.3,-21.7 -1.4,-13.8 1,-21.4 10.8,-33.8 z"
     class="g2_1"
     id="path152"
     inkscape:connector-curvature="0"
     style="fill:#ffffff" />
  <path
     d="m 1135.0764,649.23303 c -16.7,-1.2 -31.7,9 -32.6,21.9 -0.9,13 12.6,24.9 29.8,26.1 16.9,1.1 32.1,-9 33,-22.2 0.9,-13 -12.8,-24.7 -30.2,-25.8 m 37.3,60.1 c -11,7.8 -26.1,11.7 -41.3,10.6 -32.8,-2.2 -55.9,-24 -54,-51.1 1.8,-25.9 28,-44.6 59.8,-42.4 32.2,2.3 55.6,24 53.8,50.2 -0.9,14.1 -6.9,24.5 -18.3,32.7 z"
     class="g2_1"
     id="path154"
     inkscape:connector-curvature="0"
     style="fill:#ffffff" />
  <path
     d="m 1209.9764,775.73303 -12.2,9.3 6.3,14.4 -3.2,12.7 -19,-31 31.2,-17.7 z m -148.2,0.6 c -1.1,-3.7 -1.3,-5 -1.1,-8.4 0,-3.4 0.5,-7.4 1.2,-10.4 6.2,-24.4 36.3,-38.3 66.7,-30.7 14.2,3.5 27.5,12.1 35.6,23 8.6,11.3 11.2,23.7 7.8,37.3 -1.3,5 -2.8,8.6 -6.4,14.1 l -30.2,-3.6 c 7.2,-5.6 10,-9.3 11.6,-15.8 3.5,-14 -7.4,-28.8 -24.2,-33 -16.6,-4.1 -33.3,3.7 -36.7,17.4 -1.6,6.4 -0.6,12.3 3.4,19.9 z"
     class="g2_1"
     id="path156"
     inkscape:connector-curvature="0"
     style="fill:#ffffff" />
  <path
     d="m 1073.9764,850.33303 25.9,1.7 -18.1,-18.4 z m -12.4,-68.9 82.2,91.8 -122.6,-5.1 4.7,-22.4 24.3,1.7 14.2,-30.3 -16.9,-17.6 z"
     class="g2_1"
     id="path158"
     inkscape:connector-curvature="0"
     style="fill:#ffffff" />
  <path
     d="m 1108.2764,940.13303 -87.1,7 45.6,34.4 -10.8,19.79997 -92.29996,-69.79997 86.89996,-7.2 -46,-34.8 10.8,-19.7 z"
     class="g2_1"
     id="path160"
     inkscape:connector-curvature="0"
     style="fill:#ffffff" />
  <path
     d="m 971.97644,981.23303 68.09996,23.09997 -8.8,21.8 -47.09996,-16.1 18.79996,42.6 -20.39996,9 -44.9,-103.99997 19.8,-13.2 z"
     class="g2_1"
     id="path162"
     inkscape:connector-curvature="0"
     style="fill:#ffffff" />
</svg>
